<?xml version="1.0" encoding="UTF-8" standalone="no"?>
<!DOCTYPE svg PUBLIC "-//W3C//DTD SVG 1.1//EN" "http://www.w3.org/Graphics/SVG/1.1/DTD/svg11.dtd">
<!-- Created with Vectornator (http://vectornator.io/) -->
<svg height="100%" stroke-miterlimit="10" style="fill-rule:nonzero;clip-rule:evenodd;stroke-linecap:round;stroke-linejoin:round;" version="1.1" viewBox="0 0 3370.82 2384.24" width="100%" xml:space="preserve" xmlns="http://www.w3.org/2000/svg" xmlns:vectornator="http://vectornator.io" xmlns:xlink="http://www.w3.org/1999/xlink">
<defs/>
<clipPath id="ArtboardFrame">
<rect height="2384.24" width="3370.82" x="0" y="0"/>
</clipPath>
<g clip-path="url(#ArtboardFrame)" id="레이어-4" vectornator:layerName="레이어 4">
<path d="M-1.81821-6.64006L3364.6-6.64006L3364.6 2388.78L-1.81821 2388.78L-1.81821-6.64006Z" fill="#ffffff" fill-rule="nonzero" opacity="1" stroke="#000000" stroke-linecap="butt" stroke-linejoin="round" stroke-width="0.51862"/>
</g>
<g id="레이어-2" vectornator:layerName="레이어 2">
<path d="M818.864 1178.34L1009.31 1182.32C1064.29 1183.46 1109.32 1143.64 1110.36 1093.62L1113.74 931.856C1114.27 906.663 1103.54 883.589 1085.73 866.744C1068.19 850.142 1043.77 839.59 1016.48 839.02L826.031 835.044L818.864 1178.34ZM996.516 901.562C1019.59 902.043 1037.88 919.779 1037.45 940.353L1034.5 1081.54C1034.06 1102.52 1015.05 1119.07 991.985 1118.59L821.855 1117.58L682.669 1149.1L638.056 1147.25M638.056 1147.25L148.416 1126.97L329.257 1081.95L337.206 851.779L826.943 899.737L996.516 901.562" fill="#000000" fill-rule="nonzero" opacity="1" stroke="none"/>
<path d="M1148.09 1058.64C1147.04 1109.06 1191.9 1147.53 1247.37 1148.69L1406.4 1152.01L1407.58 1095.54L1264.75 1092.55C1238.24 1092 1219.77 1082.74 1220.28 1058.53L1220.56 1044.82L1419.36 1048.97L1420.72 984.019C1421.56 943.678 1385.76 894.098 1321.95 892.766L1252.25 891.311C1202.18 890.265 1150.75 931.164 1149.72 980.379L1148.09 1058.64ZM1222.6 994.411C1223.1 970.61 1240.72 949.589 1266.74 950.132L1305.02 950.931C1332.02 951.495 1349.77 971.641 1349.24 997.055L1349.18 999.879L1222.54 997.235L1222.6 994.411Z" fill="#000000" fill-rule="nonzero" opacity="1" stroke="none"/>
<path d="M1705.31 900.77L1636.59 899.335L1574.78 1060.69L1518.29 896.865L1450.06 895.441L1539.44 1153.98L1608.16 1155.42L1705.31 900.77Z" fill="#000000" fill-rule="nonzero" opacity="1" stroke="none"/>
<path d="M1733.68 1070.86C1732.62 1121.29 1777.49 1159.76 1832.96 1160.92L1991.99 1164.24L1993.17 1107.76L1850.33 1104.78C1823.83 1104.23 1805.36 1094.96 1805.87 1070.76L1806.15 1057.04L2004.95 1061.19L2006.3 996.244C2007.14 955.904 1971.35 906.324 1907.54 904.992L1837.84 903.537C1787.77 902.491 1736.34 943.39 1735.31 992.605L1733.68 1070.86ZM1808.19 1006.64C1808.68 982.836 1826.31 961.815 1852.32 962.358L1890.61 963.157C1917.61 963.721 1935.36 983.867 1934.83 1009.28L1934.77 1012.1L1808.13 1009.46L1808.19 1006.64Z" fill="#000000" fill-rule="nonzero" opacity="1" stroke="none"/>
<path d="M2051.4 1164.67L2123.56 1166.18L2130.72 822.882L2058.57 821.376L2051.4 1164.67Z" fill="#000000" fill-rule="nonzero" opacity="1" stroke="none"/>
<path d="M2292.86 913.036C2221.68 911.55 2177.23 947.348 2176.04 1004.23L2174.6 1073.21C2173.42 1130.09 2216.33 1168.11 2287.5 1169.6L2312.54 1170.12C2384.2 1171.62 2428.66 1135.42 2429.85 1078.54L2431.29 1009.56C2432.48 952.677 2389.56 915.055 2317.89 913.559L2292.86 913.036ZM2316.69 971.246C2342.7 971.789 2361.52 987.921 2361.06 1009.7L2359.69 1075.46C2359.23 1097.24 2339.76 1112.58 2313.75 1112.03L2288.71 1111.51C2263.19 1110.98 2243.88 1094.83 2244.34 1073.05L2245.71 1007.3C2246.17 985.513 2266.13 970.19 2291.65 970.723L2316.69 971.246Z" fill="#000000" fill-rule="nonzero" opacity="1" stroke="none"/>
<path d="M2473.49 916.808L2466.31 1260.91L2536.99 1262.39L2538.96 1167.99C2553.59 1172.73 2570.23 1175.5 2588.39 1175.88L2608.03 1176.29C2679.2 1177.78 2724.15 1141.59 2725.34 1084.71L2726.78 1015.73C2727.97 958.846 2684.56 921.214 2613.38 919.728L2473.49 916.808ZM2612.04 977.412C2638.05 977.955 2656.87 994.087 2656.41 1015.87L2655.04 1081.63C2654.58 1103.41 2635.11 1118.74 2609.1 1118.2L2584.06 1117.68C2558.05 1117.13 2540.22 1101.02 2540.67 1079.24L2542.83 975.967L2612.04 977.412Z" fill="#000000" fill-rule="nonzero" opacity="1" stroke="none"/>
<path d="M2762.01 1092.33C2760.96 1142.76 2805.83 1181.23 2861.29 1182.39L3020.33 1185.71L3021.51 1129.23L2878.67 1126.25C2852.16 1125.7 2833.7 1116.43 2834.2 1092.23L2834.49 1078.51L3033.28 1082.66L3034.64 1017.71C3035.48 977.374 2999.69 927.794 2935.87 926.461L2866.17 925.006C2816.11 923.961 2764.67 964.859 2763.65 1014.07L2762.01 1092.33ZM2836.52 1028.11C2837.02 1004.31 2854.64 983.284 2880.66 983.827L2918.95 984.627C2945.94 985.19 2963.69 1005.34 2963.16 1030.75L2963.1 1033.57L2836.46 1030.93L2836.52 1028.11Z" fill="#000000" fill-rule="nonzero" opacity="1" stroke="none"/>
<path d="M3158.12 983.566L3159.25 929.107L3083.17 927.519L3077.77 1186.1L3153.86 1187.69L3156.09 1080.79C3156.9 1042.06 3229.47 999.989 3288.86 1001.23L3297.21 1001.4L3298.51 938.875L3290.17 938.701C3238.14 937.615 3182.34 952.593 3158.12 983.566Z" fill="#000000" fill-rule="nonzero" opacity="1" stroke="none"/>
<path d="M563.851 1051.72C564.162 1042.73 569.912 1038.53 575.256 1038.71L627.677 1040.53L626.758 1067.09L574.337 1065.27C568.993 1065.09 563.547 1060.5 563.851 1051.72ZM569.681 1001.04C572.769 992.772 578.505 988.992 595.809 989.591L603.697 989.864C626.345 990.647 629.073 1000.16 628.639 1012.71L628.545 1015.43L574.089 1013.55C546.86 1012.6 530.512 1028.58 529.752 1050.54C529 1072.29 543.631 1091.22 572.132 1092.21L662.468 1095.33L665.5 1007.71C666.281 985.119 648.239 961.672 610.323 960.36L591.238 959.7C554.34 958.424 535.585 977.666 533.037 999.773L569.681 1001.04Z" fill="#ffffff" fill-rule="nonzero" opacity="1" stroke="#000000" stroke-linecap="butt" stroke-linejoin="round" stroke-width="0.51862"/>
<path d="M795.091 1088.46C804.983 1081.61 811.334 1071.56 813.529 1059.1L775.867 1057.8C773.331 1064.83 765.552 1068.75 755.374 1068.4L742.396 1067.95C728.909 1067.48 719.267 1058.98 719.657 1047.69L720.837 1013.6C721.227 1002.3 731.434 994.492 744.921 994.959L757.899 995.408C768.586 995.777 775.807 1000.63 777.836 1008.24L815.498 1009.54C813.341 983.506 793.032 966.681 758.933 965.502L745.955 965.053C709.057 963.776 685.497 982.015 684.476 1011.5L683.239 1047.26C682.219 1076.75 704.456 1096.78 741.354 1098.06L754.332 1098.51C771.179 1099.09 784.984 1095.45 795.091 1088.46" fill="#ffffff" fill-rule="nonzero" opacity="1" stroke="#000000" stroke-linecap="butt" stroke-linejoin="round" stroke-width="0.51862"/>
<path d="M409.268 868.557L344.568 863.074L341.203 1078.38L383.203 1079.37L379.668 970.179L381.704 970.249L407.228 1086.71L442.098 1087.71C453.346 1049.78 466.397 1011.29 477.398 973.141L479.434 973.211L471.848 1085.93L515.279 1086.88L529.167 886.41L475.972 880.869C463.045 923.136 440.955 995.54 428.028 1037.81L429.42 1024.24L409.268 868.557Z" fill="#ffffff" fill-rule="nonzero" opacity="1" stroke="#000000" stroke-linecap="butt" stroke-linejoin="round" stroke-width="0.51862"/>
</g>
</svg>
