<?xml version="1.0" encoding="UTF-8" standalone="no"?>
<!DOCTYPE svg PUBLIC "-//W3C//DTD SVG 1.1//EN" "http://www.w3.org/Graphics/SVG/1.1/DTD/svg11.dtd">
<!-- Created with Vectornator (http://vectornator.io/) -->
<svg height="100%" stroke-miterlimit="10" style="fill-rule:nonzero;clip-rule:evenodd;stroke-linecap:round;stroke-linejoin:round;" version="1.1" viewBox="0 0 3370.82 908.239" width="100%" xml:space="preserve" xmlns="http://www.w3.org/2000/svg" xmlns:vectornator="http://vectornator.io" xmlns:xlink="http://www.w3.org/1999/xlink">
<defs/>
<clipPath id="ArtboardFrame">
<rect height="908.239" width="3370.82" x="0" y="0"/>
</clipPath>
<g clip-path="url(#ArtboardFrame)" id="레이어-3" vectornator:layerName="레이어 3">
<path d="M-8.13546-4.14181L3369.19-4.14181L3369.19 914.548L-8.13546 914.548L-8.13546-4.14181Z" fill="#ffffff" fill-rule="nonzero" opacity="1" stroke="#000000" stroke-linecap="butt" stroke-linejoin="round" stroke-width="0.486424"/>
</g>
<g id="레이어-1" vectornator:layerName="레이어 1">
<path d="M769.678 590.614L960.129 594.59C1015.1 595.738 1060.13 555.917 1061.18 505.895L1064.55 344.131C1065.08 318.938 1054.35 295.864 1036.55 279.019C1019 262.417 994.584 251.865 967.296 251.295L776.846 247.319L769.678 590.614ZM772.669 529.853L633.483 561.375L99.2308 539.242L280.071 494.225L288.02 264.053L852.105 311.848L947.33 313.836C970.4 314.318 988.69 332.054 988.261 352.627L985.313 493.818C984.875 514.795 965.869 531.348 942.799 530.867L772.669 529.853Z" fill="#000000" fill-rule="nonzero" opacity="1" stroke="none"/>
<path d="M1098.9 470.913C1097.85 521.339 1142.72 559.808 1198.18 560.966L1357.22 564.286L1358.4 507.81L1215.56 504.828C1189.05 504.275 1170.59 495.01 1171.09 470.806L1171.38 457.091L1370.17 461.241L1371.53 396.293C1372.37 355.953 1336.58 306.373 1272.77 305.04L1203.07 303.585C1153 302.54 1101.56 343.438 1100.54 392.653L1098.9 470.913ZM1173.41 406.686C1173.91 382.885 1191.54 361.863 1217.55 362.407L1255.84 363.206C1282.83 363.769 1300.58 383.915 1300.05 409.33L1299.99 412.154L1173.35 409.51L1173.41 406.686Z" fill="#000000" fill-rule="nonzero" opacity="1" stroke="none"/>
<path d="M1656.12 313.044L1587.4 311.609L1525.6 472.961L1469.11 309.14L1400.88 307.715L1490.26 566.257L1558.98 567.692L1656.12 313.044Z" fill="#000000" fill-rule="nonzero" opacity="1" stroke="none"/>
<path d="M1684.49 483.139C1683.44 533.564 1728.3 572.034 1783.77 573.192L1942.81 576.512L1943.99 520.036L1801.15 517.054C1774.64 516.5 1756.17 507.236 1756.68 483.032L1756.97 469.316L1955.76 473.467L1957.12 408.519C1957.96 368.179 1922.16 318.599 1858.35 317.266L1788.65 315.811C1738.59 314.766 1687.15 355.664 1686.12 404.879L1684.49 483.139ZM1759 418.912C1759.5 395.111 1777.12 374.089 1803.14 374.632L1841.42 375.432C1868.42 375.995 1886.17 396.141 1885.64 421.556L1885.58 424.379L1758.94 421.735L1759 418.912Z" fill="#000000" fill-rule="nonzero" opacity="1" stroke="none"/>
<path d="M2002.22 576.946L2074.37 578.452L2081.54 235.157L2009.38 233.65L2002.22 576.946Z" fill="#000000" fill-rule="nonzero" opacity="1" stroke="none"/>
<path d="M2243.67 325.311C2172.5 323.825 2128.05 359.623 2126.86 416.502L2125.42 485.484C2124.23 542.364 2167.14 580.389 2238.32 581.875L2263.35 582.397C2335.01 583.894 2379.47 547.693 2380.66 490.813L2382.1 421.831C2383.29 364.952 2340.37 327.33 2268.71 325.834L2243.67 325.311ZM2267.5 383.52C2293.52 384.063 2312.33 400.196 2311.88 421.979L2310.5 487.734C2310.05 509.518 2290.58 524.851 2264.56 524.308L2239.53 523.785C2214 523.252 2194.7 507.109 2195.15 485.326L2196.53 419.571C2196.98 397.787 2216.94 382.465 2242.47 382.998L2267.5 383.52Z" fill="#000000" fill-rule="nonzero" opacity="1" stroke="none"/>
<path d="M2424.31 329.082L2417.12 673.184L2487.8 674.66L2489.78 580.264C2504.41 585.009 2521.05 587.778 2539.21 588.157L2558.84 588.567C2630.02 590.053 2674.97 553.862 2676.16 496.982L2677.6 428.001C2678.78 371.121 2635.37 333.489 2564.2 332.003L2424.31 329.082ZM2562.85 389.686C2588.87 390.23 2607.68 406.362 2607.23 428.146L2605.85 493.9C2605.4 515.684 2585.93 531.017 2559.91 530.474L2534.88 529.951C2508.86 529.408 2491.03 513.296 2491.49 491.512L2493.64 388.242L2562.85 389.686Z" fill="#000000" fill-rule="nonzero" opacity="1" stroke="none"/>
<path d="M2712.83 504.609C2711.77 555.034 2756.64 593.504 2812.11 594.662L2971.14 597.982L2972.32 541.506L2829.48 538.523C2802.98 537.97 2784.51 528.706 2785.02 504.502L2785.3 490.786L2984.1 494.936L2985.45 429.989C2986.29 389.648 2950.5 340.068 2886.69 338.736L2816.99 337.281C2766.92 336.235 2715.49 377.134 2714.46 426.349L2712.83 504.609ZM2787.34 440.381C2787.83 416.58 2805.46 395.559 2831.47 396.102L2869.76 396.901C2896.76 397.465 2914.51 417.611 2913.98 443.025L2913.92 445.849L2787.28 443.205L2787.34 440.381Z" fill="#000000" fill-rule="nonzero" opacity="1" stroke="none"/>
<path d="M3108.93 395.841L3110.07 341.382L3033.99 339.793L3028.59 598.374L3104.67 599.963L3106.9 493.061C3107.71 454.334 3180.29 412.263 3239.68 413.503L3248.02 413.677L3249.33 351.15L3240.98 350.976C3188.95 349.889 3133.15 364.868 3108.93 395.841Z" fill="#000000" fill-rule="nonzero" opacity="1" stroke="none"/>
</g>
<g id="레이어-2" vectornator:layerName="레이어 2">
<path d="M351.065 282.307L302.564 279.053L294.965 496.612L326.519 497.703L330.505 382.471L332.541 382.542L358.066 499.004L392.935 500.001C404.184 462.073 405.83 464.363 416.831 426.217L430.272 385.504L426.271 501.154L457.57 502.237L466.204 294.667L419.032 291.177C406.105 333.444 391.793 407.833 378.866 450.1L376.83 450.029L351.065 282.307Z" fill="#ffffff" fill-rule="nonzero" opacity="1" stroke="#000000" stroke-linecap="butt" stroke-linejoin="round" stroke-width="0.51862"/>
<path d="M503.905 468.624C504.197 460.19 509.59 456.252 514.602 456.426L563.769 458.127L562.907 483.038L513.741 481.337C508.728 481.163 503.62 476.863 503.905 468.624ZM509.373 421.092C512.27 413.337 517.649 409.792 533.879 410.353L541.278 410.609C562.52 411.344 565.078 420.27 564.671 432.039L564.583 434.589L513.507 432.822C487.969 431.938 472.636 446.922 471.923 467.518C471.217 487.917 484.941 505.674 511.672 506.599L595.466 510.792L599.22 433.955C599.953 412.771 583.508 385.707 547.946 384.477L529.592 382.318C494.984 381.121 477.394 399.169 475.004 419.903L509.373 421.092Z" fill="#ffffff" fill-rule="nonzero" opacity="1" stroke="#000000" stroke-linecap="butt" stroke-linejoin="round" stroke-width="0.486424"/>
<path d="M679.359 492.237L667.187 491.816C654.537 491.379 645.494 483.407 645.86 472.815L646.966 440.842C647.333 430.25 656.906 422.922 669.555 423.36L681.727 423.781C691.752 424.128 698.488 432.031 700.392 439.167L735.933 440.43C733.911 416.008 716.419 401.056 684.437 399.95L670.13 399.575C635.523 398.378 613.82 411.22 612.863 438.877L611.703 472.419C610.746 500.076 631.507 514.875 666.115 516.072L680.167 516.13C711.433 517.211 730.588 504.957 734.751 481.339L699.427 480.268C697.049 486.863 688.906 492.568 679.359 492.237Z" fill="#ffffff" fill-rule="nonzero" opacity="1" stroke="#000000" stroke-linecap="butt" stroke-linejoin="round" stroke-width="0.486424"/>
</g>
</svg>
